<?xml version="1.0" encoding="utf-8"?>
<!-- Generator: Adobe Illustrator 24.0.2, SVG Export Plug-In . SVG Version: 6.00 Build 0)  -->
<svg version="1.1" id="Capa_1" xmlns="http://www.w3.org/2000/svg" xmlns:xlink="http://www.w3.org/1999/xlink" x="0px" y="0px"
	 viewBox="0 0 400 228.9" style="enable-background:new 0 0 400 228.9;" xml:space="preserve">
<style type="text/css">
	.st0{fill:#FFFFFF;}
</style>
<g>
	<polygon class="st0" points="12.1,172.7 40.5,172.7 40.5,166.8 18.2,166.8 18.2,147.7 32.6,147.7 34,141.8 18.2,141.8 18.2,127.2 
		40.5,127.2 40.5,121.3 12.1,121.3 	"/>
	<rect x="287.3" y="121.2" class="st0" width="5.9" height="51.5"/>
	<path class="st0" d="M106.1,121.2h-6.3l-18.2,42.4l-16.2-42.4l-6.3,0l-6.3,51.4h5.9c1.2-14.2,3.9-34.1,4.6-41
		c2.5,6.8,10,27.1,15.2,41.4h5c6-14.6,12.2-28.6,18-41.9c1.4,14.1,2.7,27.9,3.8,41.5h5.9L106.1,121.2z"/>
	<path class="st0" d="M259.4,136.5c0,8.4-6.8,11.2-11.1,11.2c-0.6,0-0.5,0-0.7,0c2.9,14,13.2,23.6,22.3,28.1c0,0,1.1-1.2,3.1-3.9
		c-5.6-3.4-16.1-13.1-18.1-20.9c0.7,0,1.7,0,1.7,0c5.8-3,9-9.9,9-15.1c0-10.2-7.8-15.5-19.7-15.5c-4.1,0-7.5,0.5-9.9,0.9v51.3h5.9
		v-46.2c1.4-0.1,3.2-0.3,4.9-0.3C255.3,126.2,259.4,129.9,259.4,136.5"/>
	<path class="st0" d="M139.2,153.4L139.2,153.4h0.4v0c2.6,0,8.2-0.6,12.4-4.4c3.2-2.9,5.6-7.1,5.6-12.2c0-13.8-11.5-16.1-20.2-16.2
		c-5.2,0-9.4,0.9-9.5,0.9l0,51.3h5.9v-19.3H139.2L139.2,153.4z M133.8,126.7c1.1-0.1,17.6-3.3,17.6,10c0,10.3-10.2,11-12.1,11h-5.5
		V126.7z"/>
	<path class="st0" d="M194.5,173.6c16.2,0,26-13.9,26-26.4c0-13.4-9.8-26.7-26-26.7c-16.2,0-25.9,13.9-25.9,26.7
		C168.6,160,178.6,173.6,194.5,173.6 M194.6,126.3c12.5,0,19.6,11.6,19.6,20.8c0,9.4-7,20.6-19.6,20.6c-12.7,0-19.6-11.2-19.6-20.6
		C175,138.2,181.9,126.3,194.6,126.3"/>
	<path class="st0" d="M337.5,173.6c15.9,0,25.5-13.9,25.5-26.4c0-13.4-9.7-26.7-25.5-26.7c-16,0-25.5,13.9-25.5,26.7
		C312,160,321.8,173.6,337.5,173.6 M337.6,126.3c12.3,0,19.3,11.6,19.3,20.8c0,9.4-6.9,20.6-19.3,20.6c-12.5,0-19.2-11.2-19.2-20.6
		C318.3,138.2,325.1,126.3,337.6,126.3"/>
	<path class="st0" d="M228.2,39.2c-0.2-0.6-0.7-0.9-1.2-0.9c-0.2,0-0.4,0-0.7,0.1c-4.9,2.9-13.8,4.8-21.8,3.8
		c1.9-2.2,5.9-4.1,8.9-4.6c1.5-5.8,2.9-7.2,2.9-7.2l3.5-0.4c0,0,1.4-1.6,2-3.8c-1.4-1.9-4.1-4.1-5.5-4.1c-0.5,0-1,0.3-1.3,0.8
		c-1.5,3-8.6,11.9-14.3,13.8c-5.6-0.1-7.1-3.6-7.3-3.9c1.8-1.1,3.1-1.4,5.4-1.3c0.7-0.7,1-1.8,1-2.8c0-0.8-0.2-1.3-0.3-1.6
		c-0.5,0.8-1.4,1.1-2.4,1.2c-2.6,0-4.2-1.2-4.2-3.1c0-1.9,0.9-3.1,2.5-3.1c2.4,0,4.2,2.4,4.2,2.4l0.8-6c0.1-0.3-0.1-0.6-0.4-0.7
		c-0.5-0.2-1.3-0.3-2.2-0.2c-0.5,0.1-1,0.2-1.7,0.2c-3.9,0-8.3-3.3-11.7-3.3c-5.3,0-11.9,3.2-11.9,3.2s1.2,2.1,1.9,2.8
		c-1.6,1-4.5,4.6-4.5,10.4c0,10.7,10,15.4,11.5,15.4c0.3-1.5,0.5-2.7,1-3.9c0.6,1.6,2,3.8,1.9,6.9c0,2-0.5,4.3-2.1,7
		c-1.9,3.8-4.2,4.5-6.6,8.9c-0.9,1.4-4,5.8-7.6,6.6c-2.8,0.7-6-0.9-7-4.8c-1.5-5.9,9.5-11.6,7.4-19.9c-1.3-5.3-6.1-8-10.2-6.9
		c-2.8,0.7-4.9,2.9-4.3,6.9c0.3-0.7,1-1.2,1.9-1.4c2.9-0.7,5,1.1,5.6,3.5c1.7,6.9-6.7,10.1-4.3,19.5c1.2,4.7,5.9,8.5,11,7.2
		c2.6-0.6,4.9-2.2,6.5-3.5c0.5,2.7,2.9,3.8,2.9,7.3c0,1.7-0.5,4-2.4,6.6c3.9,6.1,5.9,10.9,7.6,15.7h9.5c0.4-2.3,0.4-4.6,0-7
		c-6.5,0-8.4-2.8-8.4-6c0-3.9,2.8-8.5,3.5-9.5c1-1.7,1.7-3.9,1.9-5.2c1.2,0.2,2.7,0.8,3.3,1.9c0.3,3,0.1,5.8-0.6,8.3
		c5.1-0.4,12.8-0.3,17.2,0.5c0,0,4.9-5.3,5.9-6.8c-2.1-1.3-4.4-2.1-7.1-2.4c0,0-3.1,3.8-5.7,3.8c-1.8,0-3.9-0.7-3.9-0.7
		s2.1-5.1,2.1-9.2c0-4.2-1.4-5.2-5.2-5.2c-1.2,0-1.9,0-3.4,0.3c3.7-8.6,9.4-9.6,12-15.3c1-0.4,2-0.6,3-0.6c3,0,5.9,1.4,6.6,2.5
		c0.5-3.2,4.9-6.4,7.5-6.4l3.4,2.5l3.5,0c0,0,0.6-1.3,0.5-3.6C229,42.6,228.8,41,228.2,39.2z"/>
	<path class="st0" d="M380.4,113.7c4.2,0,7.6,3.4,7.6,7.6c0,4.2-3.4,7.5-7.6,7.5c-4.2,0-7.5-3.4-7.5-7.5
		C372.9,117.1,376.2,113.7,380.4,113.7 M380.4,127.3c3.4,0,6.1-2.7,6.1-6.1c0-3.4-2.7-6.1-6.1-6.1c-3.4,0-6.1,2.7-6.1,6.1
		C374.3,124.6,377,127.3,380.4,127.3 M377.7,117.8c0-0.2,0.2-0.4,0.4-0.4h3.1c1.3,0,2.6,0.9,2.6,2.5c0,1.5-1,2.1-1.6,2.3
		c0.4,0.8,0.8,1.6,1.1,2.3c0.1,0.3-0.1,0.6-0.4,0.6H382c-0.2,0-0.3-0.1-0.4-0.3l-1-2.5h-1.3v2.4c0,0.2-0.2,0.4-0.4,0.4h-0.8
		c-0.2,0-0.4-0.2-0.4-0.4V117.8z M381.1,120.9c0.6,0,1.1-0.5,1.1-1c0-0.6-0.4-1-1.1-1h-1.9v2.1H381.1z"/>
	<path class="st0" d="M59.1,192.4c0-0.2,0.2-0.4,0.4-0.4h1.9c0.2,0,0.4,0.2,0.4,0.4v5.5h6.8v-5.5c0-0.2,0.2-0.4,0.4-0.4h1.9
		c0.2,0,0.4,0.2,0.4,0.4v13.7c0,0.2-0.2,0.4-0.4,0.4H69c-0.2,0-0.4-0.2-0.4-0.4v-5.7h-6.8v5.7c0,0.2-0.2,0.4-0.4,0.4h-1.9
		c-0.2,0-0.4-0.2-0.4-0.4V192.4z"/>
	<path class="st0" d="M87.3,191.8c4.1,0,7.5,3.3,7.5,7.5c0,4.1-3.3,7.4-7.5,7.4c-4.1,0-7.4-3.3-7.4-7.4
		C79.8,195.1,83.1,191.8,87.3,191.8 M87.3,204c2.6,0,4.8-2.1,4.8-4.7c0-2.6-2.2-4.8-4.8-4.8c-2.6,0-4.7,2.2-4.7,4.8
		C82.5,201.9,84.6,204,87.3,204"/>
	<path class="st0" d="M104.5,194.5h-3.2c-0.2,0-0.4-0.2-0.4-0.4v-1.7c0-0.2,0.2-0.4,0.4-0.4h9.1c0.2,0,0.4,0.2,0.4,0.4v1.7
		c0,0.2-0.2,0.4-0.4,0.4h-3.2v11.6c0,0.2-0.2,0.4-0.4,0.4h-1.9c-0.2,0-0.4-0.2-0.4-0.4V194.5z"/>
	<path class="st0" d="M118.4,192.4c0-0.2,0.2-0.4,0.4-0.4h8.4c0.2,0,0.4,0.2,0.4,0.4v1.7c0,0.2-0.2,0.4-0.4,0.4h-6.1v3.4h5.1
		c0.2,0,0.4,0.2,0.4,0.4v1.7c0,0.2-0.2,0.4-0.4,0.4h-5.1v3.6h6.1c0.2,0,0.4,0.2,0.4,0.4v1.7c0,0.2-0.2,0.4-0.4,0.4h-8.4
		c-0.2,0-0.4-0.2-0.4-0.4V192.4z"/>
	<path class="st0" d="M136.3,192.4c0-0.2,0.2-0.4,0.4-0.4h1.9c0.2,0,0.4,0.2,0.4,0.4V204h5.3c0.2,0,0.4,0.2,0.4,0.4v1.7
		c0,0.2-0.2,0.4-0.4,0.4h-7.6c-0.2,0-0.4-0.2-0.4-0.4V192.4z"/>
	<path class="st0" d="M151.3,204.5l0.7-1.3c0.2-0.3,0.5-0.3,0.7-0.1c0.1,0.1,1.8,1.3,3.1,1.3c1.1,0,1.9-0.7,1.9-1.6
		c0-1.1-0.9-1.8-2.6-2.5c-1.9-0.8-3.9-2-3.9-4.5c0-1.8,1.4-4,4.7-4c2.1,0,3.7,1.1,4.1,1.4c0.2,0.1,0.3,0.5,0.1,0.7l-0.8,1.2
		c-0.2,0.2-0.5,0.4-0.7,0.2c-0.2-0.1-1.7-1.1-2.9-1.1c-1.2,0-1.8,0.8-1.8,1.5c0,1,0.8,1.6,2.4,2.3c2,0.8,4.3,2,4.3,4.7
		c0,2.1-1.8,4.1-4.8,4.1c-2.6,0-4.1-1.2-4.6-1.6C151.2,204.9,151.1,204.8,151.3,204.5"/>
	<path class="st0" d="M181.9,198.6L181.9,198.6l-0.4-0.5c-0.8-0.9-1.4-1.8-1.4-3c0-1.6,1.3-3.4,3.9-3.4c2.3,0,3.9,1.5,3.9,3.4
		c0,2.1-2.1,3.4-2.5,3.8l2.4,2.4c0.3-0.7,0.6-1.5,0.7-2.3c0.1-0.4,0.2-0.7,0.7-0.5l1.1,0.3c0.5,0.1,0.4,0.6,0.4,0.8
		c-0.4,1.5-1,2.8-1.3,3.3l1.8,1.7c0.2,0.2,0.5,0.5,0,1l-0.8,0.9c-0.2,0.2-0.6,0.3-0.9-0.1l-1.5-1.5c-0.4,0.4-1.8,1.8-4.5,1.8
		c-2.6,0-4.4-1.8-4.4-3.9C179,200.1,181.5,198.9,181.9,198.6 M183.7,204.5c1.6,0,2.4-0.9,2.7-1.2l-3.1-3.3c-0.3,0.2-1.8,0.9-1.8,2.6
		C181.5,203.7,182.5,204.5,183.7,204.5 M185.7,195.3c0-0.8-0.7-1.6-1.8-1.6c-1,0-1.5,0.6-1.5,1.4c0,0.7,0.5,1.2,1.1,1.9l0.5,0.5
		C184.2,197.3,185.7,196.6,185.7,195.3"/>
	<path class="st0" d="M209.3,192.4c0-0.2,0.2-0.4,0.4-0.4h5.9c2.5,0,4.5,2,4.5,4.5c0,1.9-1.3,3.5-3.1,4.2l2.8,5.3
		c0.1,0.3,0,0.6-0.3,0.6h-2.2c-0.2,0-0.3-0.1-0.3-0.2l-2.8-5.5H212v5.3c0,0.2-0.2,0.4-0.4,0.4h-1.9c-0.2,0-0.4-0.2-0.4-0.4V192.4z
		 M215.4,198.6c1.1,0,2.1-1,2.1-2.1c0-1.1-1-2-2.1-2H212v4.1H215.4z"/>
	<path class="st0" d="M228,192.4c0-0.2,0.2-0.4,0.4-0.4h8.4c0.2,0,0.4,0.2,0.4,0.4v1.7c0,0.2-0.2,0.4-0.4,0.4h-6.1v3.4h5.1
		c0.2,0,0.4,0.2,0.4,0.4v1.7c0,0.2-0.2,0.4-0.4,0.4h-5.1v3.6h6.1c0.2,0,0.4,0.2,0.4,0.4v1.7c0,0.2-0.2,0.4-0.4,0.4h-8.4
		c-0.2,0-0.4-0.2-0.4-0.4V192.4z"/>
	<path class="st0" d="M245.2,204.5l0.7-1.3c0.2-0.3,0.5-0.3,0.7-0.1c0.1,0.1,1.8,1.3,3.1,1.3c1.1,0,1.9-0.7,1.9-1.6
		c0-1.1-0.9-1.8-2.6-2.5c-1.9-0.8-3.9-2-3.9-4.5c0-1.8,1.4-4,4.7-4c2.1,0,3.7,1.1,4.1,1.4c0.2,0.1,0.3,0.5,0.1,0.7l-0.8,1.2
		c-0.2,0.2-0.5,0.4-0.7,0.2c-0.2-0.1-1.7-1.1-2.9-1.1c-1.2,0-1.8,0.8-1.8,1.5c0,1,0.8,1.6,2.4,2.3c2,0.8,4.3,2,4.3,4.7
		c0,2.1-1.8,4.1-4.8,4.1c-2.6,0-4.2-1.2-4.6-1.6C245.1,204.9,245,204.8,245.2,204.5"/>
	<path class="st0" d="M268.4,191.8c4.1,0,7.5,3.3,7.5,7.5c0,4.1-3.3,7.4-7.5,7.4c-4.2,0-7.4-3.3-7.4-7.4
		C261,195.1,264.3,191.8,268.4,191.8 M268.4,204c2.6,0,4.8-2.1,4.8-4.7c0-2.6-2.2-4.8-4.8-4.8c-2.6,0-4.7,2.2-4.7,4.8
		C263.7,201.9,265.8,204,268.4,204"/>
	<path class="st0" d="M285,192.4c0-0.2,0.2-0.4,0.4-0.4h5.9c2.5,0,4.5,2,4.5,4.5c0,1.9-1.3,3.5-3.1,4.2l2.8,5.3
		c0.1,0.3,0,0.6-0.4,0.6h-2.2c-0.2,0-0.3-0.1-0.3-0.2l-2.8-5.5h-2.3v5.3c0,0.2-0.2,0.4-0.4,0.4h-1.9c-0.2,0-0.4-0.2-0.4-0.4V192.4z
		 M291.1,198.6c1.1,0,2-1,2-2.1c0-1.1-1-2-2-2h-3.4v4.1H291.1z"/>
	<path class="st0" d="M305.9,194.5h-3.2c-0.2,0-0.4-0.2-0.4-0.4v-1.7c0-0.2,0.2-0.4,0.4-0.4h9.1c0.2,0,0.4,0.2,0.4,0.4v1.7
		c0,0.2-0.2,0.4-0.4,0.4h-3.2v11.6c0,0.2-0.2,0.4-0.4,0.4h-1.9c-0.2,0-0.4-0.2-0.4-0.4V194.5z"/>
	<path class="st0" d="M318.7,204.5l0.7-1.3c0.2-0.3,0.5-0.3,0.7-0.1c0.1,0.1,1.8,1.3,3.1,1.3c1.1,0,1.9-0.7,1.9-1.6
		c0-1.1-0.9-1.8-2.6-2.5c-1.9-0.8-3.9-2-3.9-4.5c0-1.8,1.4-4,4.7-4c2.1,0,3.7,1.1,4.2,1.4c0.2,0.1,0.3,0.5,0.1,0.7l-0.8,1.2
		c-0.2,0.2-0.5,0.4-0.7,0.2c-0.2-0.1-1.7-1.1-2.9-1.1c-1.2,0-1.8,0.8-1.8,1.5c0,1,0.8,1.6,2.4,2.3c2,0.8,4.3,2,4.3,4.7
		c0,2.1-1.8,4.1-4.8,4.1c-2.6,0-4.1-1.2-4.6-1.6C318.6,204.9,318.5,204.8,318.7,204.5"/>
</g>
</svg>
