<?xml version="1.0" encoding="utf-8"?>
<!-- Generator: Adobe Illustrator 24.0.1, SVG Export Plug-In . SVG Version: 6.00 Build 0)  -->
<svg version="1.1" id="Capa_1" xmlns="http://www.w3.org/2000/svg" xmlns:xlink="http://www.w3.org/1999/xlink" x="0px" y="0px"
	 viewBox="0 0 500 500" style="enable-background:new 0 0 500 500;" xml:space="preserve">
<style type="text/css">
	.st0{fill:#152839;}
	.st1{fill:#FFFFFF;}
	.st2{font-family:'HelveticaNeue-Bold';}
	.st3{font-size:94.0082px;}
	.st4{letter-spacing:9;}
</style>
<path class="st0" d="M434.32,11.39H70.96c-24.06,0-43.63,16.93-43.63,37.74v106.04c0,20.81,19.57,37.74,43.63,37.74h173.26
	c2.19,0,3.96,1.77,3.96,3.96v111.38c0,1.72-1.11,3.24-2.75,3.77c-1.63,0.53-3.43-0.06-4.43-1.46l-5.85-8.16
	c-7.73-10.5-17.56-16.31-27.68-16.31c-7.37,0-14.48,3.06-20.03,8.61c-12.29,12.29-13.2,27.43-2.71,45.02l53.49,102.92
	c0.19,0.37,0.42,0.73,0.69,1.06l6.6,9.58c14.8,21.49,39.21,34.31,65.3,34.31h56.51c25.81,0,46.24-7.94,60.71-23.58
	c24.85-26.89,23.03-67.1,22.74-71.6l-0.01-92.68c0-16.67-13.56-30.24-30.24-30.24c-5.23,0-10.38,1.36-14.9,3.93
	c-0.94,0.54-2.05,0.67-3.1,0.35c-1.04-0.31-1.9-1.03-2.39-2c-5.2-10.22-15.54-16.58-26.97-16.58c-8.46,0-16.6,3.6-22.33,9.87
	c-1.44,1.58-3.87,1.72-5.48,0.35c-8.53-7.25-20.95-9.15-31.18-4.86c-1.23,0.51-2.63,0.38-3.72-0.36c-1.1-0.73-1.77-1.97-1.77-3.3
	v-60.03c0-2.19,1.77-3.96,3.96-3.96h121.7c24.06,0,43.63-16.93,43.63-37.74V49.13C477.95,28.32,458.37,11.39,434.32,11.39z
	 M325.78,271.34c9.44,0,17.13,7.68,17.13,17.12c0,3.62,2.94,6.56,6.56,6.56s6.56-2.94,6.56-6.56v-3.04
	c0-9.44,7.68-17.12,17.12-17.12s17.13,7.68,17.13,17.12v14.29c0,3.62,2.94,6.56,6.56,6.56s6.56-2.94,6.56-6.56
	c0-9.44,7.68-17.12,17.12-17.12s17.13,7.68,17.13,17.12l0.02,93.36c0.02,0.28,2.58,38.48-19.36,62.12
	c-11.88,12.79-29.03,19.27-50.98,19.27h-56.51c-21.77,0-42.15-10.71-54.5-28.64l-6.6-9.59l-53.37-102.66
	c-3.71-6.17-10.99-18.25,0.37-29.61c3.07-3.07,6.9-4.77,10.76-4.77c5.83,0,11.89,3.87,17.06,10.9l24.7,34.44
	c1.34,1.87,3.45,2.86,5.78,2.72c2.29-0.16,4.29-1.46,5.35-3.49c0.66-1.26,0.93-2.32,0.93-3.38V175.57c0-9.44,7.68-17.12,17.12-17.12
	s17.13,7.68,17.13,17.12v112.89c0,3.62,2.94,6.56,6.56,6.56c3.61,0,6.56-2.94,6.56-6.56C308.66,279.02,316.34,271.34,325.78,271.34z
	 M464.83,155.17c0,13.58-13.69,24.62-30.51,24.62h-121.7c-2.19,0-3.96-1.77-3.96-3.96c0-16.94-13.56-30.5-30.24-30.5
	s-30.24,13.57-30.24,30.24c0,2.19-1.77,4.22-3.96,4.22H70.96c-16.82,0-30.51-11.04-30.51-24.62V49.13
	c0-13.58,13.69-24.62,30.51-24.62h363.36c16.82,0,30.51,11.05,30.51,24.62V155.17z"/>
<path class="st1" d="M270.86,134.98c-0.64,0.12-1.26,0.34-1.89,0.5C269.6,135.32,270.22,135.1,270.86,134.98z"/>
<text transform="matrix(1 0 0 1 156.6709 134.5713)" class="st0 st2 st3 st4">MSI</text>
</svg>
