<?xml version="1.0" encoding="utf-8"?>
<!-- Generator: Adobe Illustrator 21.0.0, SVG Export Plug-In . SVG Version: 6.00 Build 0)  -->
<svg version="1.1" id="Capa_1" xmlns="http://www.w3.org/2000/svg" xmlns:xlink="http://www.w3.org/1999/xlink" x="0px" y="0px"
	 viewBox="0 0 400 400" style="enable-background:new 0 0 400 400;" xml:space="preserve">
<style type="text/css">
	.st0{fill:#152839;}
	.st1{fill:none;stroke:#FFFFFF;stroke-width:0.5;stroke-miterlimit:10;}
</style>
<path class="st0" d="M389.4,104.6c1.3-5.7,3.6-19.4-1.9-25.1c-2.3-2.4-6.2-3.6-11.5-3.6c-11.7,0-29.8,5.8-38.8,15.1
	c-2.6,2.7-9.5,10.3-18.6,20.1c-0.1,0-0.1,0-0.1,0c-7.1-0.3-15-0.7-23.1-1c0.2-0.9,0.3-1.8,0.3-2.7c0-2.8-1-5.3-2.9-7.3L285,92
	c-1.9-1.9-4.4-3-7-3c-2.6,0-5.1,1.1-7,3l-8,8.4C260.3,84.8,248.4,73,234.2,73H55.6c-16.2,0-29.4,15.3-29.4,34.2v65.7
	c-9.6,5.6-16.2,17.2-16.2,30.5v38.5v19.3v48.1c0,2.9,2.3,5.3,5.1,5.3h16.2c2.8,0,5.1-2.4,5.1-5.3v-14h217.1v14
	c0,2.9,2.3,5.3,5.1,5.3h16.2c2.8,0,5.1-2.4,5.1-5.3v-48.1v-19.3v-14.5c7.5-7.4,19.4-19.1,32.4-31.8c6.9,23.6,15.5,53.4,19,66.4
	c1.6,6.1,4,10.9,7,14.1c2.7,2.9,6,4.4,9.3,4.4c0.5,0,1,0,1.5-0.1c7.3-1.1,12.3-9.2,12.1-19.7c-0.1-5.6-0.6-22.5-1.4-43.3
	c0.1-0.1,0.2-0.2,0.3-0.3l15.6-16.2c1.9-2,2.9-4.5,2.9-7.3c0-2.8-1-5.3-2.9-7.3l-7.8-8.1c-2.6-2.7-6.4-3.6-9.7-2.6
	c-0.3-7.1-0.5-14.1-0.8-20.9c0-1-0.4-1.8-0.9-2.6c9.9-9.8,17.5-17.3,20.2-20.2C382.1,126.1,386.9,115.9,389.4,104.6 M360,184.6
	c0.3-0.3,0.6-0.4,0.8-0.4c0.2,0,0.5,0.1,0.8,0.4l7.8,8.1c0.3,0.3,0.3,0.6,0.3,0.8c0,0.2-0.1,0.5-0.3,0.8L359.2,205
	c-0.2-6.3-0.5-12.8-0.7-19.4C359,185.4,359.5,185.1,360,184.6 M310.7,119.9c-8.7,9.6-18.6,20.4-28.1,31c-0.5-0.5-1.1-0.9-1.8-1.1
	c-24.7-8-56.2-18-66.4-20.4c-8-1.9-11.3-5.3-11.1-7.7c0.3-2.6,4.2-5.4,10.2-5.5c4.7-0.1,18.5,0.4,41.1,1.3
	c10.2,0.4,22.2,0.9,35.8,1.5C297.4,119.3,304.2,119.6,310.7,119.9 M263.6,171.8v-18c4.3,1.4,8.5,2.7,12.6,4.1
	C271.8,162.7,267.6,167.4,263.6,171.8 M216.1,139.2c8.1,2.2,22.3,6.6,37.4,11.3v18.9c-1-0.1-2-0.2-3-0.2h-19.3c0-0.1,0-0.1,0-0.2
	C231.1,156.2,225,145.1,216.1,139.2 M221,169c0,0.1,0,0.2,0,0.2h-62.9c0-0.1,0-0.1,0-0.2c0-13,8.6-23.6,19.3-23.6h24.3
	C212.3,145.4,221,156,221,169 M277.2,98.5c0.3-0.3,0.6-0.3,0.8-0.3c0.2,0,0.5,0.1,0.8,0.3l7.8,8.1c0.3,0.3,0.3,0.6,0.3,0.8
	c0,0.2-0.1,0.5-0.3,0.8c-0.4,0.4-0.7,0.9-0.9,1.4c-6.6-0.3-12.8-0.5-18.5-0.8L277.2,98.5z M36.4,107.2c0-13,8.6-23.6,19.3-23.6
	h178.5c10.6,0,19.3,10.6,19.3,23.6v1.2c-21.9-0.9-35.4-1.3-40.1-1.2c-10.1,0.1-18,5.9-18.8,13.6c-0.6,6.5,3.5,11.2,9,14.2
	c-0.6,0-1.2-0.1-1.9-0.1h-24.3c-16.2,0-29.4,15.3-29.4,34.2c0,0.1,0,0.2,0,0.2h-6.1c0-0.1,0-0.1,0-0.2c0-18.8-13.2-34.2-29.4-34.2
	H88.1c-16.2,0-29.4,15.3-29.4,34.2c0,0.1,0,0.2,0,0.2H39.4c-1,0-2,0.1-3,0.2V107.2z M131.7,169.3H68.8c0-0.1,0-0.1,0-0.2
	c0-13,8.6-23.6,19.3-23.6h24.3c10.6,0,19.3,10.6,19.3,23.6C131.7,169.1,131.7,169.2,131.7,169.3 M20.1,203.4
	c0-9.7,4.8-18.1,11.7-21.7c1-0.1,1.9-0.5,2.7-1.1c1.6-0.5,3.2-0.8,5-0.8h211c1.7,0,3.4,0.3,4.9,0.8c0.1,0,0.1,0.1,0.2,0.1
	c-9.8,10.8-16.7,18.5-17.7,19.5c-0.1,0.2-0.3,0.3-0.4,0.5c0,0.1-0.3,0.4-0.6,0.9c-0.2,0-0.3-0.1-0.5-0.1c-17.9-1.9-29.3-2.8-34-2.8
	c-6,0-10.6,2.8-12.6,7.7c-2.2,5.5-0.6,12.6,4,17.3c2.3,2.4,8.2,6.8,17.2,12.8H20.1V203.4z M220.8,232.4c-11.1-7.3-18.6-12.7-20.9-15
	c-1.9-2-2.9-5.3-2-7.4c0.6-1.4,2.1-2.1,4.5-2.1c2.8,0,10.2,0.4,29.2,2.3c-1.8,3.2-3.9,6.9-5.8,10.7C223.7,225.2,222,229,220.8,232.4
	 M20.1,247.2h198.6c0.4,2.1,1.3,3.9,2.6,5.4c2,2.1,4.7,3.1,8.1,3.1c0.7,0,1.5-0.1,2.3-0.2c0.1,0.1,0.2,0.3,0.2,0.4H20.1V247.2z
	 M255.1,274.8c-2.2-2.3-7.4-10.2-14.4-21.7c7.3-2.8,15.3-7.3,21.2-11.1c1.5,15.8,2.3,26.2,2.3,30.3c0,2.5-0.7,4.1-2,4.6
	C260.2,277.8,257.1,276.8,255.1,274.8 M31.3,284.8c-2.8,0-5.1,2.4-5.1,5.3v14h-6.1v-37.6h218.4c4.8,7.7,8.3,12.7,10.4,14.8
	c1.4,1.5,3.1,2.6,4.8,3.5H31.3z M263.6,304v-14c0-1.5-0.6-2.8-1.6-3.8c1.2-0.1,2.4-0.4,3.5-0.9c1.6-0.7,3-1.7,4.1-3V304H263.6z
	 M347.7,271.4c-2.4,0.3-5.9-3.6-8.1-11.8c-3.6-13.5-12.7-45-19.7-68.9c-0.2-0.7-0.5-1.2-0.9-1.7c10.1-10,20.5-20.2,29.7-29.3
	c1.4,35.1,3.5,90.4,3.6,101.2C352.4,267.7,349.6,271.1,347.7,271.4 M370.3,125.5c-10.6,11-99.1,97.8-104.5,103.1
	c-1.3,0.9-7.1,5-14.1,9.1c-8.2,4.7-13.7,7-17.3,8.1l20.3-21.2c1.7-1.8,1.7-4.7,0-6.4c-1.7-1.8-4.5-1.8-6.2,0l-20.7,21.6
	c0.8-3.2,2.4-7.7,5.7-14.3c4.5-9.1,9.9-17.4,10.9-19c5.1-5.6,88.4-97.8,99-108.8c0.3-0.3,0.6-0.6,1-0.9c-0.7,1.7-0.5,3.8,0.9,5.1
	c1.7,1.8,4.5,1.8,6.2,0c3.7-3.8,10-3.4,14.2,0.9c4.1,4.3,4.5,10.9,0.9,14.7c-1.7,1.8-1.7,4.7,0,6.5c0.9,0.9,2,1.3,3.1,1.3
	c0.4,0,0.8-0.1,1.2-0.2C370.6,125.1,370.5,125.3,370.3,125.5 M354.3,90.3c7.2-3.3,15.6-5.2,21.7-5.2c3.5,0,5.1,0.7,5.3,0.9
	c0.9,1.1,1.7,7.2-0.6,17c-0.8,3.6-1.9,7.1-3.2,10.3c0.7-5.9-1.2-12.3-5.8-17.1C367,91.1,360.3,89.1,354.3,90.3"/>
<path class="st1" d="M389.4,104.6c1.3-5.7,3.6-19.4-1.9-25.1c-2.3-2.4-6.2-3.6-11.5-3.6c-11.7,0-29.8,5.8-38.8,15.1
	c-2.6,2.7-9.5,10.3-18.6,20.1c-0.1,0-0.1,0-0.1,0c-7.1-0.3-15-0.7-23.1-1c0.2-0.9,0.3-1.8,0.3-2.7c0-2.8-1-5.3-2.9-7.3L285,92
	c-1.9-1.9-4.4-3-7-3c-2.6,0-5.1,1.1-7,3l-8,8.4C260.3,84.8,248.4,73,234.2,73H55.6c-16.2,0-29.4,15.3-29.4,34.2v65.7
	c-9.6,5.6-16.2,17.2-16.2,30.5v38.5v19.3v48.1c0,2.9,2.3,5.3,5.1,5.3h16.2c2.8,0,5.1-2.4,5.1-5.3v-14h217.1v14
	c0,2.9,2.3,5.3,5.1,5.3h16.2c2.8,0,5.1-2.4,5.1-5.3v-48.1v-19.3v-14.5c7.5-7.4,19.4-19.1,32.4-31.8c6.9,23.6,15.5,53.4,19,66.4
	c1.6,6.1,4,10.9,7,14.1c2.7,2.9,6,4.4,9.3,4.4c0.5,0,1,0,1.5-0.1c7.3-1.1,12.3-9.2,12.1-19.7c-0.1-5.6-0.6-22.5-1.4-43.3
	c0.1-0.1,0.2-0.2,0.3-0.3l15.6-16.2c1.9-2,2.9-4.5,2.9-7.3c0-2.8-1-5.3-2.9-7.3l-7.8-8.1c-2.6-2.7-6.4-3.6-9.7-2.6
	c-0.3-7.1-0.5-14.1-0.8-20.9c0-1-0.4-1.8-0.9-2.6c9.9-9.8,17.5-17.3,20.2-20.2C382.1,126.1,386.9,115.9,389.4,104.6z M360,184.6
	c0.3-0.3,0.6-0.4,0.8-0.4c0.2,0,0.5,0.1,0.8,0.4l7.8,8.1c0.3,0.3,0.3,0.6,0.3,0.8c0,0.2-0.1,0.5-0.3,0.8L359.2,205
	c-0.2-6.3-0.5-12.8-0.7-19.4C359,185.4,359.5,185.1,360,184.6z M310.7,119.9c-8.7,9.6-18.6,20.4-28.1,31c-0.5-0.5-1.1-0.9-1.8-1.1
	c-24.7-8-56.2-18-66.4-20.4c-8-1.9-11.3-5.3-11.1-7.7c0.3-2.6,4.2-5.4,10.2-5.5c4.7-0.1,18.5,0.4,41.1,1.3
	c10.2,0.4,22.2,0.9,35.8,1.5C297.4,119.3,304.2,119.6,310.7,119.9z M263.6,171.8v-18c4.3,1.4,8.5,2.7,12.6,4.1
	C271.8,162.7,267.6,167.4,263.6,171.8z M216.1,139.2c8.1,2.2,22.3,6.6,37.4,11.3v18.9c-1-0.1-2-0.2-3-0.2h-19.3c0-0.1,0-0.1,0-0.2
	C231.1,156.2,225,145.1,216.1,139.2z M221,169c0,0.1,0,0.2,0,0.2h-62.9c0-0.1,0-0.1,0-0.2c0-13,8.6-23.6,19.3-23.6h24.3
	C212.3,145.4,221,156,221,169z M277.2,98.5c0.3-0.3,0.6-0.3,0.8-0.3c0.2,0,0.5,0.1,0.8,0.3l7.8,8.1c0.3,0.3,0.3,0.6,0.3,0.8
	c0,0.2-0.1,0.5-0.3,0.8c-0.4,0.4-0.7,0.9-0.9,1.4c-6.6-0.3-12.8-0.5-18.5-0.8L277.2,98.5z M36.4,107.2c0-13,8.6-23.6,19.3-23.6
	h178.5c10.6,0,19.3,10.6,19.3,23.6v1.2c-21.9-0.9-35.4-1.3-40.1-1.2c-10.1,0.1-18,5.9-18.8,13.6c-0.6,6.5,3.5,11.2,9,14.2
	c-0.6,0-1.2-0.1-1.9-0.1h-24.3c-16.2,0-29.4,15.3-29.4,34.2c0,0.1,0,0.2,0,0.2h-6.1c0-0.1,0-0.1,0-0.2c0-18.8-13.2-34.2-29.4-34.2
	H88.1c-16.2,0-29.4,15.3-29.4,34.2c0,0.1,0,0.2,0,0.2H39.4c-1,0-2,0.1-3,0.2V107.2z M131.7,169.3H68.8c0-0.1,0-0.1,0-0.2
	c0-13,8.6-23.6,19.3-23.6h24.3c10.6,0,19.3,10.6,19.3,23.6C131.7,169.1,131.7,169.2,131.7,169.3z M20.1,203.4
	c0-9.7,4.8-18.1,11.7-21.7c1-0.1,1.9-0.5,2.7-1.1c1.6-0.5,3.2-0.8,5-0.8h211c1.7,0,3.4,0.3,4.9,0.8c0.1,0,0.1,0.1,0.2,0.1
	c-9.8,10.8-16.7,18.5-17.7,19.5c-0.1,0.2-0.3,0.3-0.4,0.5c0,0.1-0.3,0.4-0.6,0.9c-0.2,0-0.3-0.1-0.5-0.1c-17.9-1.9-29.3-2.8-34-2.8
	c-6,0-10.6,2.8-12.6,7.7c-2.2,5.5-0.6,12.6,4,17.3c2.3,2.4,8.2,6.8,17.2,12.8H20.1V203.4z M220.8,232.4c-11.1-7.3-18.6-12.7-20.9-15
	c-1.9-2-2.9-5.3-2-7.4c0.6-1.4,2.1-2.1,4.5-2.1c2.8,0,10.2,0.4,29.2,2.3c-1.8,3.2-3.9,6.9-5.8,10.7C223.7,225.2,222,229,220.8,232.4
	z M20.1,247.2h198.6c0.4,2.1,1.3,3.9,2.6,5.4c2,2.1,4.7,3.1,8.1,3.1c0.7,0,1.5-0.1,2.3-0.2c0.1,0.1,0.2,0.3,0.2,0.4H20.1V247.2z
	 M255.1,274.8c-2.2-2.3-7.4-10.2-14.4-21.7c7.3-2.8,15.3-7.3,21.2-11.1c1.5,15.8,2.3,26.2,2.3,30.3c0,2.5-0.7,4.1-2,4.6
	C260.2,277.8,257.1,276.8,255.1,274.8z M31.3,284.8c-2.8,0-5.1,2.4-5.1,5.3v14h-6.1v-37.6h218.4c4.8,7.7,8.3,12.7,10.4,14.8
	c1.4,1.5,3.1,2.6,4.8,3.5H31.3z M263.6,304v-14c0-1.5-0.6-2.8-1.6-3.8c1.2-0.1,2.4-0.4,3.5-0.9c1.6-0.7,3-1.7,4.1-3V304H263.6z
	 M347.7,271.4c-2.4,0.3-5.9-3.6-8.1-11.8c-3.6-13.5-12.7-45-19.7-68.9c-0.2-0.7-0.5-1.2-0.9-1.7c10.1-10,20.5-20.2,29.7-29.3
	c1.4,35.1,3.5,90.4,3.6,101.2C352.4,267.7,349.6,271.1,347.7,271.4z M370.3,125.5c-10.6,11-99.1,97.8-104.5,103.1
	c-1.3,0.9-7.1,5-14.1,9.1c-8.2,4.7-13.7,7-17.3,8.1l20.3-21.2c1.7-1.8,1.7-4.7,0-6.4c-1.7-1.8-4.5-1.8-6.2,0l-20.7,21.6
	c0.8-3.2,2.4-7.7,5.7-14.3c4.5-9.1,9.9-17.4,10.9-19c5.1-5.6,88.4-97.8,99-108.8c0.3-0.3,0.6-0.6,1-0.9c-0.7,1.7-0.5,3.8,0.9,5.1
	c1.7,1.8,4.5,1.8,6.2,0c3.7-3.8,10-3.4,14.2,0.9c4.1,4.3,4.5,10.9,0.9,14.7c-1.7,1.8-1.7,4.7,0,6.5c0.9,0.9,2,1.3,3.1,1.3
	c0.4,0,0.8-0.1,1.2-0.2C370.6,125.1,370.5,125.3,370.3,125.5z M354.3,90.3c7.2-3.3,15.6-5.2,21.7-5.2c3.5,0,5.1,0.7,5.3,0.9
	c0.9,1.1,1.7,7.2-0.6,17c-0.8,3.6-1.9,7.1-3.2,10.3c0.7-5.9-1.2-12.3-5.8-17.1C367,91.1,360.3,89.1,354.3,90.3z"/>
</svg>
