<?xml version="1.0" encoding="utf-8"?>
<!-- Generator: Adobe Illustrator 24.0.1, SVG Export Plug-In . SVG Version: 6.00 Build 0)  -->
<svg version="1.1" id="Capa_1" xmlns="http://www.w3.org/2000/svg" xmlns:xlink="http://www.w3.org/1999/xlink" x="0px" y="0px"
	 viewBox="0 0 500 500" style="enable-background:new 0 0 500 500;" xml:space="preserve">
<style type="text/css">
	.st0{fill:#152839;}
</style>
<path class="st0" d="M328.89,128.21c0.19,2.8-1.96,5.28-4.8,5.44c-2.83,0.21-5.28-1.97-5.46-4.76c-0.18-2.85,1.96-5.28,4.79-5.49
	C326.26,123.24,328.7,125.37,328.89,128.21"/>
<path class="st0" d="M365.95,151.3c0.18,2.85-1.96,5.28-4.8,5.49c-2.83,0.16-5.27-1.97-5.46-4.81c-0.18-2.85,1.96-5.28,4.8-5.44
	C363.32,146.33,365.76,148.51,365.95,151.3"/>
<path class="st0" d="M342.18,183.14c0.18,2.85-1.96,5.28-4.8,5.49c-2.83,0.16-5.28-1.97-5.46-4.81c-0.19-2.85,1.96-5.28,4.79-5.44
	C339.55,178.17,341.99,180.34,342.18,183.14"/>
<path class="st0" d="M346.33,220.25c0.18,2.85-1.96,5.28-4.79,5.44c-2.84,0.21-5.28-1.97-5.46-4.76c-0.18-2.85,1.96-5.28,4.79-5.49
	C343.7,215.28,346.15,217.41,346.33,220.25"/>
<path class="st0" d="M327.39,240.29c0.18,2.85-1.96,5.28-4.8,5.49c-2.83,0.16-5.28-1.97-5.46-4.81c-0.18-2.85,1.96-5.28,4.8-5.44
	C324.76,235.32,327.2,237.49,327.39,240.29"/>
<path class="st0" d="M379.82,195.56c0.19,2.85-1.96,5.28-4.79,5.49c-2.83,0.16-5.28-1.97-5.46-4.81c-0.19-2.8,1.96-5.28,4.8-5.44
	C377.19,190.59,379.63,192.77,379.82,195.56"/>
<path class="st0" d="M499.6,252.3c-1.54-4.04-3.71-7.51-6.03-10.77c-1.53-2.12-3.2-4.1-4.92-6.02c1.74-1.92,3.42-3.89,4.95-5.99
	c2.33-3.31,4.49-6.73,6-10.82c-4.09,1.5-7.54,3.68-10.82,5.95c-2.11,1.55-4.09,3.22-6,4.95c-1.91-1.74-3.88-3.41-6-4.95
	c-3.28-2.28-6.72-4.45-10.82-5.95c1.51,4.09,3.67,7.51,6,10.82c1.54,2.1,3.21,4.07,4.95,5.99c-1.72,1.92-3.39,3.9-4.92,6.02
	c-2.32,3.26-4.49,6.73-6.03,10.77c4.06-1.5,7.5-3.67,10.78-6c2.12-1.55,4.1-3.22,6.03-4.95c1.93,1.73,3.91,3.4,6.03,4.95
	C492.1,248.62,495.53,250.8,499.6,252.3z"/>
<path class="st0" d="M100.23,167.5c-1.54-4.04-3.71-7.51-6.04-10.77c-1.52-2.12-3.18-4.09-4.9-6c1.73-1.92,3.4-3.89,4.93-6.01
	c2.33-3.31,4.48-6.73,6-10.82c-4.1,1.5-7.55,3.68-10.82,6.01c-2.11,1.51-4.08,3.18-6,4.91c-1.91-1.73-3.89-3.39-6-4.91
	c-3.28-2.33-6.72-4.5-10.81-6.01c1.51,4.09,3.66,7.51,5.99,10.82c1.53,2.12,3.2,4.1,4.93,6.01c-1.72,1.91-3.37,3.88-4.9,6
	c-2.32,3.26-4.49,6.73-6.02,10.77c4.06-1.5,7.5-3.68,10.78-6c2.12-1.55,4.1-3.22,6.03-4.93c1.93,1.71,3.91,3.38,6.03,4.93
	C92.73,163.83,96.16,166,100.23,167.5z"/>
<path class="st0" d="M204.18,42.7c4-3.89,7.9-7.88,11.61-12.06c4.62-5.28,9.07-10.72,12.9-16.82c-6.33,3.42-12.04,7.56-17.57,11.85
	c-4.4,3.47-8.61,7.11-12.72,10.87c-3.88-3.98-7.87-7.87-12.06-11.6c-5.28-4.61-10.73-9.06-16.84-12.89
	c3.46,6.32,7.57,12.01,11.88,17.55c3.45,4.42,7.11,8.64,10.87,12.76c-3.98,3.9-7.87,7.88-11.57,12.09
	c-4.62,5.23-9.07,10.72-12.93,16.77c6.29-3.47,12-7.61,17.54-11.91c4.4-3.43,8.62-7.09,12.75-10.84c3.9,3.97,7.9,7.88,12.09,11.56
	c5.28,4.66,10.74,9.06,16.81,12.94c-3.49-6.26-7.61-12.01-11.91-17.55C211.57,51.05,207.92,46.84,204.18,42.7z"/>
<path class="st0" d="M353.48,383.05c3.99-3.88,7.89-7.88,11.6-12.05c4.61-5.28,9.07-10.72,12.89-16.88
	c-6.34,3.47-12.04,7.61-17.57,11.91c-4.4,3.43-8.6,7.09-12.71,10.86c-3.88-4-7.87-7.91-12.07-11.59
	c-5.27-4.66-10.73-9.11-16.84-12.89c3.46,6.32,7.58,12.01,11.88,17.55c3.46,4.43,7.12,8.63,10.89,12.74
	c-3.99,3.89-7.88,7.88-11.58,12.06c-4.63,5.28-9.07,10.77-12.93,16.82c6.29-3.52,12-7.61,17.54-11.91
	c4.41-3.48,8.64-7.12,12.77-10.86c3.9,3.98,7.89,7.87,12.08,11.59c5.27,4.61,10.73,9.06,16.81,12.94
	c-3.5-6.32-7.61-12.01-11.92-17.55C360.86,391.37,357.22,387.16,353.48,383.05z"/>
<g>
	<path class="st0" d="M423.92,167.85c-0.02-0.11-0.06-0.2-0.11-0.32c-1.34-10.27-4.58-20.44-9.63-30.22
		c-14.47-27.94-39.21-44.63-69.66-46.99c-35.22-2.64-67.24,13.69-79.5,30.45c-7.97,10.88-20.26,17.24-33.72,17.44
		c-16.02,0.27-34.08,8.15-49.54,21.63c-15.41,13.43-26.38,31.02-30.93,49.57c-29.96,9.14-54.56,30.01-73.12,62.04
		c-15.27,26.33-22.21,53.07-25.18,64.5c-0.68,2.67-1.11,4.25-1.28,4.71l-0.22,0.69c-2.99,12.26-10.86,22.95-23.39,31.8
		c-10.48,7.39-21.23,11.44-26.4,13.39L0,387.01l4.42,11.73l1.23-0.47c32.33-12.14,51.67-30.18,57.47-53.59
		c0.38-1.09,0.78-2.63,1.4-4.98l0.15-0.59c15.87-61.14,43.5-99.84,82.14-115.08c-0.37,0.33-0.73,0.66-1.09,1
		c-19.45,18.28-33.04,41.54-37.43,52.71l-0.38,0.97l11.66,4.59l0.38-0.97c5.68-14.47,27.35-49.49,58.09-65.34l1.03-0.09l-0.04-0.43
		c11.13-5.57,22.56-8.19,34.11-7.89c-22.44,15.78-52.18,42.11-64.06,65.86l-0.47,0.93l11.21,5.64l0.47-0.93
		c14.67-29.37,64.25-66.86,76.44-71.24c10.61-3.81,21.01-4.63,30.91-2.46c1.55,0.34,3.07,0.76,4.62,1.27
		c-64.54,40.09-71.88,55.19-80.37,72.68c-1.75,3.6-3.74,7.69-6.53,12.21l-0.54,0.88l10.64,6.57l0.55-0.88
		c3.13-5.01,5.28-9.44,7.18-13.35c7.77-16.04,14.48-29.89,79.73-69.97c15.65-9.65,23.29-9.16,25.33-7.35
		c2.21,1.95,2.19,7.56-0.06,12.51c-2.66,5.9-20.28,19.43-33.16,29.32c-12.94,9.9-26.32,20.13-32.16,27.62
		c-4.7,5.97-9.98,16.2-15.69,30.38c-4.54,11.27-8.12,22.01-9.85,27.41c-1.21,3.75-2.18,7-2.84,9.41c-0.96,3.54-2.28,8.39,2.48,10.78
		c2.89,1.48,6.31,0.56,8.1-2.15c3.85-4.87,52.09-51.37,72.9-51.37h0.17c2.67,0,3.77,0.95,4.4,1.74
		c13.9,22.24-36.49,62.38-93.9,105.04c-30.52,22.68-53.67,30.12-76.07,37.33c-20.32,6.52-41.32,13.27-66.88,30.99l-0.85,0.59
		l7.14,10.3l0.85-0.59c23.81-16.51,42.98-22.71,63.28-29.27l0.29-0.1c23.43-7.53,47.66-15.32,79.69-39.18
		c49.25-36.59,90.74-69.12,99.64-96.56l0.06-0.06c0.13-0.13,0.26-0.26,0.37-0.41c5.96-8.18,18.13-21.94,32.65-22.19
		c16.68-0.26,40.83-8.51,58.57-30.89C421.19,251.63,435.27,219.89,423.92,167.85z M242.5,304.25c3.82-8.55,7.25-14.82,10.23-18.65
		c4.84-6.16,18.14-16.36,29.92-25.39c20.48-15.75,33.23-25.82,36.96-34.03c3.8-8.42,4.46-20.49-3.08-27.09
		c-3.2-2.83-7.22-4.25-12.03-4.25c-5.3,0-11.56,1.72-18.74,5.17c-4.49-2.58-25.26-13-53.26-2.93c-0.67,0.24-1.53,0.62-2.55,1.11
		c-18.69-4.38-37.32-2.16-55.36,6.58c-3.31,0.31-6.58,0.75-9.75,1.3c11.14-32.69,43.3-54.97,66.65-55.33
		c17.44-0.27,33.34-8.49,43.63-22.58c10.43-14.28,38.85-27.68,68.42-25.3c18.38,1.42,43.62,9.56,59.49,40.23
		c4.62,8.91,7.5,17.98,8.58,27.04c0,0.09,0.01,0.17,0.02,0.22c2.2,19.17-4.31,34.87-10.16,44.66
		c-15.2,25.41-42.51,40.87-60.12,41.12c-17.44,0.32-33.34,8.55-43.63,22.58c-4.49,6.12-11.4,11.69-19.99,16.1
		c-9.1,4.7-19.62,7.82-30.41,9.06C245.73,304.05,244.08,304.17,242.5,304.25z M307.84,286.15c7.95-10.86,20.24-17.24,33.71-17.49
		c20.77-0.31,52.6-16.98,70.69-47.25c0.86-1.44,1.7-2.97,2.57-4.65c-2.38,21.73-10.61,36.15-17.25,44.52
		c-15.01,18.97-35.13,25.95-48.95,26.16c-11.28,0.19-22.28,5.5-32.69,15.77c-0.74-2.11-1.7-4.07-2.91-5.96l-0.24-0.38
		c-1.55-2.09-4.29-4.81-8.72-6.18C305.48,289.17,306.74,287.64,307.84,286.15z M247.18,316.51c-0.47,0.37-0.95,0.74-1.44,1.14
		c-4.32,3.54-8.73,7.32-12.85,11.02c1.31-3.72,2.74-7.56,4.34-11.66C240.66,317,244,316.83,247.18,316.51z"/>
	<path class="st0" d="M242.2,173.66c-3.11,0.23-5.47,2.94-5.27,6.04c0.1,1.51,0.78,2.88,1.93,3.88c1.03,0.9,2.33,1.38,3.67,1.38
		c0.14,0,0.27,0,0.41-0.01c1.49-0.08,2.86-0.75,3.86-1.88c1.01-1.14,1.52-2.6,1.42-4.11c-0.1-1.53-0.79-2.93-1.94-3.94
		C245.14,174.04,243.71,173.57,242.2,173.66z"/>
	<path class="st0" d="M203.56,176.35c-1.5,0.08-2.87,0.75-3.88,1.88c-1.01,1.14-1.51,2.6-1.42,4.11c0.2,2.99,2.72,5.31,5.69,5.31
		c0.11,0,0.22,0,0.32-0.01c3.11-0.23,5.48-2.94,5.28-6.04c-0.1-1.51-0.78-2.88-1.93-3.88C206.49,176.74,205.08,176.25,203.56,176.35
		z"/>
	<path class="st0" d="M300.37,150.21c-1.5,0.09-2.87,0.75-3.88,1.88c-1.01,1.14-1.51,2.6-1.41,4.1c0.19,2.99,2.71,5.31,5.7,5.31
		c0.11,0,0.22,0,0.32-0.01c3.11-0.23,5.48-2.94,5.28-6.04c-0.1-1.51-0.78-2.88-1.93-3.88C303.31,150.59,301.91,150.11,300.37,150.21
		z"/>
	<path class="st0" d="M268.28,157.46c-1.5,0.09-2.88,0.75-3.88,1.88c-1,1.13-1.5,2.59-1.4,4.11c0.2,2.99,2.72,5.31,5.7,5.31
		c0.1,0,0.21,0,0.31-0.01c3.12-0.23,5.49-2.94,5.28-6.04c-0.1-1.51-0.78-2.89-1.92-3.88C271.24,157.83,269.79,157.37,268.28,157.46z
		"/>
	<path class="st0" d="M287.45,179.05L287.45,179.05c-3.12,0.23-5.49,2.94-5.28,6.04c0.1,1.51,0.78,2.88,1.92,3.88
		c1.03,0.9,2.33,1.38,3.67,1.38c0.14,0,0.27,0,0.41-0.01c1.5-0.09,2.88-0.75,3.87-1.87c1.01-1.13,1.51-2.6,1.41-4.12
		C293.24,181.26,290.6,178.87,287.45,179.05z"/>
</g>
</svg>
