<?xml version="1.0" encoding="utf-8"?>
<!-- Generator: Adobe Illustrator 24.0.1, SVG Export Plug-In . SVG Version: 6.00 Build 0)  -->
<svg version="1.1" id="Capa_1" xmlns="http://www.w3.org/2000/svg" xmlns:xlink="http://www.w3.org/1999/xlink" x="0px" y="0px"
	 viewBox="0 0 500 500" style="enable-background:new 0 0 500 500;" xml:space="preserve">
<style type="text/css">
	.st0{fill:#FFFFFF;}
	.st1{fill:#152839;}
</style>
<g>
	<path class="st0" d="M244.07,8.06 M246.33,490.55c-1.47,0.44-3.07,0.44-4.54,0"/>
</g>
<path class="st1" d="M250.75,168.08v-15.56c0-4.24-3.45-7.69-7.69-7.69s-7.69,3.45-7.69,7.69v15.77l-2.44,0.34
	c-26.62,3.74-45.22,20.16-45.22,39.91c0,19.89,21.25,36.81,56.84,45.25c0.47,0.11,0.97,0.17,1.54,0.19l0.7,0.11
	c23.35,6.78,38.43,17.99,38.43,28.54c0,15.14-21.23,25.31-41.06,25.31c-19.83,0-41.07-10.17-41.07-25.31c0-4.24-3.45-7.69-7.69-7.69
	c-4.24,0-7.69,3.45-7.69,7.69c0,19.76,18.59,36.17,45.22,39.91l2.44,0.34v17.21c0,4.24,3.45,7.69,7.69,7.69s7.69-3.45,7.69-7.69v-17
	l2.52-0.29c27.43-3.09,47.33-19.99,47.33-40.18c0-19.9-21.25-36.81-56.85-45.25c-0.52-0.12-1.05-0.19-1.58-0.21l-0.72-0.11
	c-23.31-6.79-38.38-17.99-38.38-28.53c0-15.14,21.24-25.31,41.07-25.31c19.83,0,41.06,10.17,41.06,25.31c0,4.24,3.45,7.69,7.69,7.69
	s7.69-3.45,7.69-7.69c0-20.19-19.91-37.09-47.33-40.18L250.75,168.08z"/>
<path class="st1" d="M429.45,64.45h-65.98c-55.49,0-89.32-30.93-104.54-49.36c-3.69-4.46-9.11-7.02-14.87-7.02
	s-11.17,2.56-14.87,7.03c-15.23,18.43-49.06,49.35-104.54,49.35H58.69c-13.13,0-23.82,10.68-23.82,23.81v104.78
	c0,190.73,153.24,280.95,206.93,297.52c1.46,0.44,3.06,0.44,4.54,0c53.68-16.56,206.93-106.78,206.93-297.52V88.26
	C453.27,75.13,442.58,64.45,429.45,64.45z M437.88,193.04c0,97.43-43.02,164.35-79.11,203.33c-39.53,42.69-86,68.94-113.78,78.44
	l-0.92,0.32l-0.92-0.32c-27.78-9.5-74.25-35.75-113.78-78.44c-36.09-38.98-79.11-105.9-79.11-203.33V88.26
	c0-4.65,3.78-8.43,8.43-8.43h65.97c61.78,0,99.44-34.42,116.4-54.94c1.06-1.26,2.34-1.45,3.01-1.45c1.17,0,2.25,0.52,3.02,1.45
	c16.94,20.51,54.6,54.94,116.39,54.94h65.98c4.65,0,8.43,3.78,8.43,8.43V193.04z"/>
<path class="st1" d="M111.52,199.28v-60.09h25.21c38.73,0,75.25-12.04,105.63-34.82l1.7-1.28l1.71,1.28
	c9.84,7.39,20.39,13.72,31.37,18.81c3.84,1.77,8.43,0.11,10.21-3.74c0.87-1.86,0.95-3.95,0.24-5.88c-0.71-1.93-2.12-3.47-3.99-4.33
	c-12.29-5.7-23.94-13.07-34.64-21.91c-2.84-2.34-6.96-2.34-9.8,0c-29.32,24.22-63.79,36.5-102.44,36.5h-32.9
	c-4.24,0-7.69,3.45-7.69,7.69v67.78c0,31.57,5.42,61.52,16.11,89.01c1.51,3.86,5.99,5.91,9.97,4.38c3.94-1.54,5.91-6,4.37-9.95
	C116.59,257.01,111.52,228.94,111.52,199.28z"/>
<path class="st1" d="M304.39,366.03c-24.09,22.65-47.36,35.58-59.09,41.26l-1.24,0.6l-1.24-0.6c-14.68-7.11-43.47-23.51-71.28-53.55
	c-6.96-7.53-13.41-15.42-19.17-23.47c-1.5-2.1-3.87-3.21-6.27-3.21c-1.55,0-3.11,0.47-4.46,1.43c-1.67,1.2-2.78,2.97-3.11,5
	c-0.34,2.02,0.14,4.06,1.33,5.73c6.15,8.6,13.01,17,20.39,24.97c32.91,35.54,67.38,53.23,80.67,59.19c1.99,0.89,4.31,0.89,6.29,0
	c10.71-4.79,38.73-18.89,67.72-46.15c1.5-1.41,2.35-3.31,2.42-5.36c0.06-2.06-0.68-4.01-2.09-5.51
	C312.36,363.28,307.49,363.13,304.39,366.03z"/>
<path class="st1" d="M366.16,292.13L366.16,292.13c-1.04-0.49-2.15-0.73-3.26-0.73c-0.88,0-1.77,0.16-2.63,0.47
	c-1.93,0.7-3.48,2.11-4.34,3.97c-5.22,11.17-11.52,22.06-18.72,32.38c-2.43,3.48-1.57,8.28,1.9,10.71c3.38,2.36,8.38,1.45,10.71-1.9
	c7.71-11.04,14.45-22.71,20.04-34.67c0.87-1.86,0.97-3.95,0.27-5.88C369.43,294.54,368.02,293,366.16,292.13z"/>
<path class="st1" d="M384.31,123.81H351.4c-4.24,0-7.69,3.45-7.69,7.69c0,4.24,3.45,7.69,7.69,7.69h25.22v60.09
	c0,17.37-1.75,34.33-5.2,50.4c-0.89,4.15,1.76,8.24,5.91,9.13c4.11,0.88,8.27-1.86,9.14-5.91c3.67-17.13,5.54-35.18,5.54-53.63
	V131.5C392,127.26,388.55,123.81,384.31,123.81z"/>
</svg>
