<?xml version="1.0" encoding="utf-8"?>
<!-- Generator: Adobe Illustrator 24.0.1, SVG Export Plug-In . SVG Version: 6.00 Build 0)  -->
<svg version="1.1" id="Capa_1" xmlns="http://www.w3.org/2000/svg" xmlns:xlink="http://www.w3.org/1999/xlink" x="0px" y="0px"
	 viewBox="0 0 500 500" style="enable-background:new 0 0 500 500;" xml:space="preserve">
<style type="text/css">
	.st0{fill:#152839;}
</style>
<path class="st0" d="M139.56,364L139.56,364c-0.83-2.95-3.53-4.9-6.45-4.9c-0.6,0-1.2,0.08-1.8,0.25l-42.32,11.82
	c-1.72,0.48-3.15,1.61-4.03,3.17c-0.87,1.54-1.09,3.39-0.62,5.09l11.82,42.32c0.48,1.72,1.61,3.16,3.17,4.04
	c1.52,0.86,3.38,1.08,5.09,0.61l42.32-11.82c3.55-0.99,5.64-4.7,4.65-8.26L139.56,364z M107.26,411.69l-8.21-29.41l29.41-8.22
	l8.21,29.42L107.26,411.69z"/>
<rect x="292.05" y="307.77" transform="matrix(0.9631 -0.269 0.269 0.9631 -72.9046 96.8262)" class="st0" width="49.72" height="13.4"/>
<rect x="300.42" y="337.76" transform="matrix(0.9632 -0.2689 0.2689 0.9632 -80.6422 100.1531)" class="st0" width="49.71" height="13.4"/>
<path class="st0" d="M463.14,108.22L188.03,42.94c-2.52-0.6-5.07-0.89-7.6-0.89c-5.97,0-11.85,1.65-17.07,4.87
	c-7.42,4.57-12.62,11.75-14.62,20.21l-34.77,144.13c-0.21,0.87-0.24,1.76-0.1,2.64l0.34,2.1l-78.59,21.95
	c-8.38,2.34-15.36,7.82-19.64,15.42c-4.29,7.61-5.36,16.41-3.01,24.8l43.26,154.9c3.92,14.06,16.84,23.87,31.42,23.87
	c2.96,0,5.92-0.41,8.8-1.21l272.34-76.06c8.39-2.34,15.38-7.82,19.66-15.42c4.28-7.6,5.34-16.4,3-24.8l-4.74-16.97l24.24,5.75
	c8.39,1.99,17.3,0.57,24.66-3.97c7.42-4.57,12.62-11.77,14.63-20.25l37.13-156.49C491.52,130.01,480.65,112.38,463.14,108.22z
	 M141.95,152.42l108.07,25.64l-122.51,34.21L141.95,152.42z M25.87,274.55c-2.85-10.22,3.14-20.85,13.36-23.71l272.34-76.06
	c1.7-0.47,3.45-0.72,5.19-0.72c8.59,0,16.21,5.79,18.52,14.07l5.88,21.03l-309.4,86.41L25.87,274.55z M35.34,308.49l309.4-86.41
	l9.65,34.57L45,343.05L35.34,308.49z M376.76,357.67c-2.52,4.48-6.64,7.71-11.59,9.09L92.84,442.81c-1.69,0.47-3.44,0.72-5.19,0.72
	c-8.59,0-16.21-5.78-18.52-14.07l-20.53-73.5l309.4-86.41l20.52,73.5C379.92,348,379.29,353.19,376.76,357.67z M437.19,300.91
	c-1.19,5-4.25,9.24-8.62,11.94c-3.08,1.89-6.54,2.87-10.06,2.87c-1.49,0-2.99-0.17-4.48-0.53l-31.45-7.46l-7.84-28.08l37.82,8.97
	l3.09-13.04l-45.03-10.69l-17.41-62.35l101.61,24.11L437.19,300.91z M457.91,213.62L349.09,187.8l-0.91-3.26
	c-3.93-14.05-16.85-23.87-31.43-23.87c-2.96,0-5.92,0.41-8.79,1.21l-35.05,9.79l-0.99-1.05c-0.9-0.96-2.05-1.62-3.32-1.92
	l-123.51-29.31l8.41-34.89l312.69,74.2L457.91,213.62z M474.33,144.42l-5.04,21.24L156.65,91.48l5.12-21.23
	c1.19-5,4.25-9.24,8.62-11.94c4.38-2.69,9.54-3.52,14.54-2.34l275.12,65.29c5,1.18,9.23,4.25,11.93,8.63
	C474.68,134.27,475.51,139.43,474.33,144.42z"/>
<rect x="390.4" y="221.22" transform="matrix(0.2309 -0.973 0.973 0.2309 65.9797 575.6181)" class="st0" width="13.4" height="49.72"/>
</svg>
