<?xml version="1.0" encoding="utf-8"?>
<!-- Generator: Adobe Illustrator 24.0.1, SVG Export Plug-In . SVG Version: 6.00 Build 0)  -->
<svg version="1.1" id="Capa_1" xmlns="http://www.w3.org/2000/svg" xmlns:xlink="http://www.w3.org/1999/xlink" x="0px" y="0px"
	 viewBox="0 0 500 500" style="enable-background:new 0 0 500 500;" xml:space="preserve">
<style type="text/css">
	.st0{fill:#152839;}
</style>
<path class="st0" d="M411.72,273.6l-0.91-0.71c-90.49-88.18-236.17-87.29-325.11,1.69l-0.22,0.22c-2.36,2.44-3.65,5.64-3.65,9.04
	c0,3.51,1.35,6.78,3.79,9.19l45.25,45.28c5.06,5.07,13.34,5.06,18.46-0.02c26.58-26.58,62-41.23,99.73-41.24
	c37.76,0,73.15,14.62,99.69,41.17c2.47,2.51,5.75,3.89,9.24,3.9c3.55,0,6.82-1.36,9.29-3.82l45.61-45.65
	c2.36-2.55,3.61-5.73,3.61-9.04c0-3.51-1.37-6.79-3.85-9.23C412.35,274.1,412.05,273.83,411.72,273.6z M358.16,325.3l-5.57-4.91
	c-28.5-25.14-65.26-38.98-103.53-38.98c-38.28,0.01-75.04,13.85-103.52,38.98l-5.56,4.92l-41.54-41.56l6.17-5.57
	c39.48-35.7,90.77-55.37,144.42-55.38c53.71,0,105.03,19.67,144.54,55.38l6.17,5.58L358.16,325.3z"/>
<path class="st0" d="M491.09,176.6L491.09,176.6c-0.33-0.33-0.68-0.63-1.06-0.88l-0.9-0.69C355.42,43.69,139.41,44.64,7.21,176.82
	c-2.45,2.46-3.8,5.72-3.8,9.2c0,3.49,1.38,6.8,3.88,9.32l46.47,46.47c2.47,2.47,5.74,3.83,9.21,3.83c3.53-0.01,6.79-1.37,9.24-3.82
	c47.16-47.16,109.96-73.14,176.84-73.14c66.91,0.01,129.7,25.98,176.83,73.11c2.46,2.48,5.73,3.84,9.23,3.85
	c3.52,0,6.8-1.36,9.27-3.81l46.74-46.76c2.43-2.45,3.78-5.74,3.78-9.24C494.9,182.31,493.55,179.04,491.09,176.6z M435.22,228.86
	l-5.58-5.17c-49.11-45.55-113.23-70.64-180.56-70.65c-67.35,0-131.47,25.09-180.58,70.64l-5.58,5.18l-42.88-42.88l5.96-5.58
	c125.07-117.15,321.03-117.14,446.11,0.02l5.96,5.58L435.22,228.86z"/>
<path class="st0" d="M249.16,334.81c-26.97,0-48.91,21.94-48.91,48.9s21.94,48.9,48.91,48.9s48.9-21.94,48.9-48.9
	S276.12,334.81,249.16,334.81z M249.16,419.34c-19.64,0-35.62-15.98-35.62-35.62s15.98-35.62,35.62-35.62s35.62,15.98,35.62,35.62
	S268.8,419.34,249.16,419.34z"/>
</svg>
